<svg xmlns="http://www.w3.org/2000/svg" width="24.013" height="24" viewBox="0 0 24.013 24">
  <g id="noun-cricket-7472625" transform="translate(-14.861 -14.859)">
    <path id="Path_46" data-name="Path 46" d="M62.577,18.748a11.976,11.976,0,0,0-2.386-1.834,17.261,17.261,0,0,1,.818,1.7.526.526,0,0,1-.3.687l-.017.007a.526.526,0,0,1-.671-.3,16,16,0,0,0-.924-1.889.525.525,0,0,1,.164-.706A11.964,11.964,0,0,0,56.2,15.43a20.59,20.59,0,0,1,3.363,11.812A20.59,20.59,0,0,1,56.2,39.054a11.977,11.977,0,0,0,3.063-.99.526.526,0,0,1-.168-.71,15.9,15.9,0,0,0,.924-1.889.526.526,0,0,1,.671-.3l.017.007a.527.527,0,0,1,.3.687,16.842,16.842,0,0,1-.822,1.708,11.882,11.882,0,0,0,2.385-1.834,12.028,12.028,0,0,0,0-16.988Zm-.994,3.666.017,0a.526.526,0,0,1,.625.415c.132.727.232,1.472.3,2.225a.526.526,0,0,1-.491.567h-.019a.523.523,0,0,1-.554-.48c-.063-.717-.157-1.424-.283-2.116a.523.523,0,0,1,.407-.609Zm.643,9.233a.527.527,0,0,1-.625.416l-.017,0a.522.522,0,0,1-.407-.609c.125-.691.22-1.4.283-2.116a.524.524,0,0,1,.554-.482h.019a.527.527,0,0,1,.493.567c-.067.753-.167,1.5-.3,2.225Z" transform="translate(-27.216 -0.376)" fill="#fe0188"/>
    <path id="Path_47" data-name="Path 47" d="M27.52,14.891c-.218-.012-.435-.032-.653-.032a12,12,0,1,0,.653,23.982c2.362-2.816,3.763-7.142,3.763-11.975s-1.4-9.159-3.763-11.975Zm-1.575,1.143.015-.009a.522.522,0,0,1,.73.174,16.941,16.941,0,0,1,1,2.041.526.526,0,0,1-.3.687l-.017.007a.526.526,0,0,1-.671-.3,15.8,15.8,0,0,0-.925-1.889.528.528,0,0,1,.172-.713Zm1.748,19.451a16.934,16.934,0,0,1-1,2.041.523.523,0,0,1-.73.175l-.015-.009a.526.526,0,0,1-.171-.713A16.107,16.107,0,0,0,26.7,35.09a.526.526,0,0,1,.671-.3l.017.007a.526.526,0,0,1,.3.686Zm.57-13.446.017,0a.526.526,0,0,1,.625.415c.132.727.232,1.472.3,2.225a.526.526,0,0,1-.493.567h-.019a.523.523,0,0,1-.554-.48c-.063-.715-.157-1.424-.283-2.116a.525.525,0,0,1,.408-.609Zm.643,9.233a.526.526,0,0,1-.625.416l-.017,0a.522.522,0,0,1-.407-.609c.125-.691.22-1.4.283-2.116a.522.522,0,0,1,.554-.48h.019a.527.527,0,0,1,.493.567c-.068.751-.167,1.5-.3,2.224Z" transform="translate(0 0)" fill="#fe0188"/>
  </g>
</svg>
