<svg id="Group_100" data-name="Group 100" xmlns="http://www.w3.org/2000/svg" xmlns:xlink="http://www.w3.org/1999/xlink" width="24.004" height="24" viewBox="0 0 24.004 24">
  <defs>
    <clipPath id="clip-path">
      <rect id="Rectangle_60" data-name="Rectangle 60" width="24.004" height="24" fill="#fe0188"/>
    </clipPath>
  </defs>
  <g id="Group_99" data-name="Group 99" clip-path="url(#clip-path)">
    <path id="Path_48" data-name="Path 48" d="M16.021,167.2c-.313.45-.584.843-.857,1.234q-1.627,2.332-3.255,4.663c-.175.251-.183.454-.035.6s.346.132.6-.044l5.616-3.916c.074-.051.15-.1.256-.169.026.119.048.2.062.293.03.191.051.383.085.573a1.61,1.61,0,0,1-.478,1.51q-1.665,1.654-3.32,3.318l-7.965,7.966q-.976.976-1.953,1.952a1.173,1.173,0,0,1-1.743,0Q1.7,183.853.381,182.52A1.174,1.174,0,0,1,.4,180.777q3.113-3.115,6.228-6.228l6.794-6.794q.137-.137.275-.272a1.463,1.463,0,0,1,1.178-.439c.364.03.724.1,1.151.156" transform="translate(0 -161.566)" fill="#fe0188"/>
    <path id="Path_49" data-name="Path 49" d="M425.268,130.3l1.367,1.369c-.064.071-.128.147-.2.218-.408.411-.8.841-1.233,1.222a12.558,12.558,0,0,1-1.113.81q-1.581,1.107-3.166,2.208a.607.607,0,0,1-.236.107,1.018,1.018,0,0,1,.073-.152q1.458-2.092,2.922-4.18a3.566,3.566,0,0,1,.392-.423q.474-.482.952-.958c.077-.077.16-.148.24-.221" transform="translate(-406.905 -126.034)" fill="#fe0188"/>
    <path id="Path_50" data-name="Path 50" d="M578.833,59.365l1.338,1.357-1.76,1.764-1.35-1.344c.589-.617,1.182-1.2,1.772-1.777" transform="translate(-558.155 -57.42)" fill="#fe0188"/>
    <path id="Path_51" data-name="Path 51" d="M648.833,1.339c.369-.362.736-.748,1.131-1.1a.971.971,0,0,1,1.308.031.953.953,0,0,1,.093,1.3c-.359.413-.772.779-1.164,1.168l-1.367-1.4" transform="translate(-627.576 0)" fill="#fe0188"/>
  </g>
</svg>
