<svg xmlns="http://www.w3.org/2000/svg" width="19.087" height="19.126" viewBox="0 0 19.087 19.126">
  <g id="noun-grid-6753782" transform="translate(-18.817 -18.754)">
    <g id="Group_101" data-name="Group 101" transform="translate(18.817 18.754)">
      <path id="Path_52" data-name="Path 52" d="M53.189,18.754a.4.4,0,0,0-.4.4v7.884a.4.4,0,0,0,.4.4h7.883a.4.4,0,0,0,.4-.4V19.157a.4.4,0,0,0-.4-.4Z" transform="translate(-42.389 -18.754)" fill="#fe0188"/>
      <path id="Path_53" data-name="Path 53" d="M19.221,18.754a.4.4,0,0,0-.4.4v7.884a.4.4,0,0,0,.4.4H27.1a.4.4,0,0,0,.4-.4V19.157a.4.4,0,0,0-.4-.4Z" transform="translate(-18.817 -18.754)" fill="#fe0188"/>
      <path id="Path_54" data-name="Path 54" d="M53.189,52.848a.4.4,0,0,0-.4.4v7.884a.4.4,0,0,0,.4.4h7.883a.4.4,0,0,0,.4-.4V53.252a.4.4,0,0,0-.4-.4Z" transform="translate(-42.389 -42.414)" fill="#fe0188"/>
      <path id="Path_55" data-name="Path 55" d="M19.221,52.848a.4.4,0,0,0-.4.4v7.884a.4.4,0,0,0,.4.4H27.1a.4.4,0,0,0,.4-.4V53.252a.4.4,0,0,0-.4-.4Z" transform="translate(-18.817 -42.414)" fill="#fe0188"/>
    </g>
  </g>
</svg>
